<?xml version="1.0" encoding="UTF-8"?>
<svg width="14px" height="14px" viewBox="0 0 14 14" version="1.1" xmlns="http://www.w3.org/2000/svg" xmlns:xlink="http://www.w3.org/1999/xlink">
    <title>Sites</title>
    <g id="页面-1" stroke="none" stroke-width="1" fill="none" fill-rule="evenodd">
        <g id="Dashboard" transform="translate(-1077.000000, -23.000000)" fill-rule="nonzero">
            <g id="Sites" transform="translate(1077.000000, 23.000000)">
                <path d="M7.00884558,8 C8.38773572,8 9.50884558,6.87795276 9.50884558,5.5 C9.50884558,4.12110986 8.38679834,3 7.00884558,3 C5.63089283,3 4.50884558,4.12110986 4.50884558,5.49906262 C4.50884558,6.87795276 5.62995544,8 7.00884558,8 Z M7.00884558,4.31139858 C7.66407618,4.31139858 8.19650963,4.8447694 8.19650963,5.49906262 C8.19650963,6.15335583 7.66407618,6.68672666 7.00884558,6.68672666 C6.35361499,6.68672666 5.82118154,6.15429321 5.82118154,5.49906262 C5.82118154,4.84383202 6.35361499,4.31139858 7.00884558,4.31139858 Z" id="形状" fill="#34332E"></path>
                <path d="M13.7026764,11.3566742 L12.5631222,9.68660106 C12.2643627,9.24943225 11.7803723,8.98624779 11.2639452,8.97829927 C11.872561,7.96795357 12.2839955,6.78450669 12.2839955,5.42707545 C12.2839955,2.4348978 9.93062422,0 7.03863223,0 C4.14664024,0 1.79326895,2.4348978 1.79326895,5.42707545 C1.79326895,6.78627303 2.22775063,7.97678526 2.83465922,8.97829927 L2.69040106,8.97829927 C2.14580516,8.97829927 1.6413284,9.25826394 1.3408617,9.72811002 L0.270449081,11.3981832 C-0.0599172406,11.9123659 -0.0897755384,12.5729936 0.19277161,13.1168307 C0.47531274,13.6617462 1.02246943,14 1.61998844,14 L12.3795985,14 C12.9873607,14 13.5387854,13.6529145 13.8179122,13.0947515 C14.0970389,12.5365884 14.0526518,11.8706788 13.7026764,11.3566742 L13.7026764,11.3566742 Z M7.03863223,1.23643704 C9.27249972,1.23643704 11.0889575,3.11670452 11.0889575,5.42707545 C11.0889575,7.95205652 9.28786449,9.81731012 7.776995,10.9362856 C7.32800215,11.2692405 6.71938636,11.261292 6.26271112,10.9159727 C5.03950435,9.99129447 2.98745336,8.04920515 2.98745336,5.42707545 C2.98830696,3.11670452 4.80476474,1.23643704 7.03863223,1.23643704 L7.03863223,1.23643704 Z M12.7568891,12.5259904 C12.721038,12.5975271 12.612631,12.763563 12.3795985,12.763563 L1.61998844,12.763563 C1.39037042,12.763563 1.2819634,12.601943 1.24611226,12.5321726 C1.21026112,12.4624022 1.13941244,12.278703 1.26659862,12.0817562 L2.33701125,10.4125662 C2.41586389,10.2897947 2.54878336,10.2158962 2.69125466,10.2156195 L3.73691292,10.2156195 C4.36089348,10.9424678 5.02840757,11.5138784 5.55934589,11.9157204 C6.00236355,12.2504416 6.52305869,12.4191269 7.04119302,12.4191269 C7.54481619,12.4191269 8.04587855,12.2610396 8.47438504,11.9430987 C9.09751201,11.4812011 9.7633189,10.9044915 10.3616915,10.2156195 C10.3659595,10.2156195 10.3702275,10.2165026 10.3753491,10.2165026 L11.240898,10.2165026 C11.3783274,10.2165026 11.5080744,10.286273 11.5874591,10.4028514 L12.7270132,12.0729246 C12.8610281,12.2672218 12.7918867,12.4544537 12.7568891,12.5259904 L12.7568891,12.5259904 Z" id="形状" fill="#333333"></path>
            </g>
        </g>
    </g>
</svg>