<?xml version="1.0" encoding="UTF-8"?>
<svg width="24px" height="24px" viewBox="0 0 24 24" version="1.1" xmlns="http://www.w3.org/2000/svg" xmlns:xlink="http://www.w3.org/1999/xlink">
    <title>yixueyingxiang-2</title>
    <g id="页面-1" stroke="none" stroke-width="1" fill="none" fill-rule="evenodd">
        <g id="edit" transform="translate(-834.000000, -1726.000000)" fill="#FFFFFF" fill-rule="nonzero">
            <g id="yixueyingxiang-2" transform="translate(834.000000, 1726.000000)">
                <path d="M17.9957355,14.1310176 C18.0183024,12.7315416 17.4089964,8.17028641 14.3737499,5.70824526 L14.2947657,5.65641282 C13.8208611,5.38429248 13.2792558,5.37133437 12.8053511,5.61753848 C12.4329974,5.88965882 12.218612,6.36910894 12.2298954,6.88743339 L12.2298954,8.77931764 C12.0719272,8.67565275 11.9816597,8.4942392 11.9703762,8.28690942 L11.9703762,3 L11,3 L11,8.28690942 C11.0338503,9.11622854 11.5303219,9.81596655 12.2298954,10.0103382 L12.2411789,13.6904418 C12.1847617,14.5456772 12.7150835,15.2972476 13.4597909,15.4268287 C13.538775,15.452745 15.4456771,15.9062789 16.3483526,15.9840275 C16.4160533,15.9969856 16.4837539,15.9969856 16.5514546,15.9969856 C16.9125248,16.0229019 17.2623116,15.8803626 17.5443977,15.6212004 C17.8603341,15.2065409 18.0295858,14.6752583 17.9957355,14.1310176 L17.9957355,14.1310176 Z M16.5288877,14.3383474 C16.4047698,14.4160961 16.2580851,14.4420123 16.1226837,14.4160961 C15.3892598,14.3513055 13.7305935,13.9496041 13.6741763,13.9366459 C13.4485074,13.8977716 13.2905392,13.6645256 13.3243895,13.4053634 L13.3243895,11.9410968 C13.9111286,12.2132171 14.5317181,12.4075888 15.1523075,12.5371699 L15.2877088,11.5782697 C14.5994187,11.4486886 13.9336955,11.2024845 13.3131061,10.8655736 L13.3131061,10.3602072 C13.7080266,10.5157046 14.1029472,10.6452857 14.5091512,10.7359925 L14.6784028,9.77709222 C14.2044982,9.67342733 13.7531604,9.50497188 13.3018226,9.2976421 L13.3018226,7.4705484 C13.2905392,7.36688351 13.3243895,7.26321862 13.3920902,7.17251184 C13.4259405,7.14659562 13.4710743,7.14659562 13.5162081,7.14659562 C13.640326,7.14659562 13.7644439,7.18546995 13.8772783,7.2373024 C16.2016678,9.15510287 16.6755725,12.666751 16.6530056,13.7552324 C16.6755725,13.9625622 16.6304387,14.169892 16.5288877,14.3383474 L16.5288877,14.3383474 Z" id="形状"></path>
                <path d="M9.99573548,14.1310176 C10.0183024,12.7315416 9.40899637,8.17028641 6.37374985,5.70824526 L6.29476574,5.65641282 C5.82086108,5.38429248 5.27925575,5.37133437 4.80535109,5.61753848 C4.43299743,5.88965882 4.21861199,6.36910894 4.22989543,6.88743339 L4.22989543,8.77931764 C4.07192721,8.67565275 3.98165966,8.4942392 3.97037621,8.28690942 L3.97037621,3 L3,3 L3,8.28690942 C3.03385033,9.11622854 3.53032188,9.81596655 4.22989543,10.0103382 L4.24117888,13.6904418 C4.18476165,14.5456772 4.71508354,15.2972476 5.45979086,15.4268287 C5.53877497,15.452745 7.44567706,15.9062789 8.34835261,15.9840275 C8.41605327,15.9969856 8.48375394,15.9969856 8.55145461,15.9969856 C8.91252482,16.0229019 9.2623116,15.8803626 9.54439771,15.6212004 C9.86033415,15.2065409 10.0295858,14.6752583 9.99573548,14.1310176 L9.99573548,14.1310176 Z M8.52888772,14.3383474 C8.40476983,14.4160961 8.25808505,14.4420123 8.12268372,14.4160961 C7.38925984,14.3513055 5.73059353,13.9496041 5.6741763,13.9366459 C5.44850742,13.8977716 5.2905392,13.6645256 5.32438953,13.4053634 L5.32438953,11.9410968 C5.91112863,12.2132171 6.53171807,12.4075888 7.15230751,12.5371699 L7.28770884,11.5782697 C6.59941874,11.4486886 5.93369552,11.2024845 5.31310609,10.8655736 L5.31310609,10.3602072 C5.70802664,10.5157046 6.10294719,10.6452857 6.50915118,10.7359925 L6.67840285,9.77709222 C6.20449819,9.67342733 5.75316041,9.50497188 5.30182264,9.2976421 L5.30182264,7.4705484 C5.2905392,7.36688351 5.32438953,7.26321862 5.3920902,7.17251184 C5.42594053,7.14659562 5.47107431,7.14659562 5.51620808,7.14659562 C5.64032597,7.14659562 5.76444386,7.18546995 5.8772783,7.2373024 C8.20166783,9.15510287 8.67557249,12.666751 8.6530056,13.7552324 C8.67557249,13.9625622 8.63043872,14.169892 8.52888772,14.3383474 L8.52888772,14.3383474 Z" id="形状" transform="translate(6.500000, 9.500000) scale(-1, 1) translate(-6.500000, -9.500000) "></path>
                <path d="M20.3595506,0 L0.617977528,0 C0.269662921,0 0,0.312656328 0,0.700350175 L0,23.2996498 C0,23.6873437 0.280898876,24 0.629213483,24 L20.3707865,24 C20.7191011,24 21,23.6873437 21,23.2996498 L21,0.700350175 C20.988764,0.312656328 20.7078652,0 20.3595506,0 Z M19.5168539,22.3866933 L1.57303371,22.3866933 L1.57303371,18.3866933 L19.5168539,18.3866933 L19.5168539,22.3866933 Z M1.57303371,17.134067 L1.57303371,1.80090045 L19.5168539,1.80090045 L19.5168539,17.134067 L1.57303371,17.134067 Z" id="形状"></path>
                <path d="M12.3891403,21 L8.7918552,21 C8.62217195,21 8.48642534,20.8535593 8.48642534,20.6705085 L8.48642534,19.9383051 C8.48642534,19.7552542 8.62217195,19.6088136 8.7918552,19.6088136 L12.3891403,19.6088136 C12.5588235,19.6088136 12.6945701,19.7552542 12.6945701,19.9383051 L12.6945701,20.6705085 C12.6945701,20.8535593 12.5588235,21 12.3891403,21 Z" id="路径"></path>
                <path d="M6.90271493,21 L3.30542986,21 C3.13574661,21 3,20.8535593 3,20.6705085 L3,19.9383051 C3,19.7552542 3.13574661,19.6088136 3.30542986,19.6088136 L6.90271493,19.6088136 C7.07239819,19.6088136 7.2081448,19.7552542 7.2081448,19.9383051 L7.2081448,20.6705085 C7.2081448,20.8535593 7.07239819,21 6.90271493,21 L6.90271493,21 Z" id="路径"></path>
                <path d="M17.6945701,21 L14.0972851,21 C13.9276018,21 13.7918552,20.8535593 13.7918552,20.6705085 L13.7918552,19.9383051 C13.7918552,19.7552542 13.9276018,19.6088136 14.0972851,19.6088136 L17.6945701,19.6088136 C17.8642534,19.6088136 18,19.7552542 18,19.9383051 L18,20.6705085 C17.9886878,20.8535593 17.8529412,21 17.6945701,21 L17.6945701,21 Z" id="路径"></path>
            </g>
        </g>
    </g>
</svg>