<?xml version="1.0" encoding="UTF-8"?>
<svg width="24px" height="24px" viewBox="0 0 24 24" version="1.1" xmlns="http://www.w3.org/2000/svg" xmlns:xlink="http://www.w3.org/1999/xlink">
    <title>baogaosvg</title>
    <g id="页面-1" stroke="none" stroke-width="1" fill="none" fill-rule="evenodd">
        <g id="edit" transform="translate(-1127.000000, -1726.000000)" fill="#FFFFFF" fill-rule="nonzero">
            <g id="baogaosvg" transform="translate(1127.000000, 1726.000000)">
                <path d="M9.31200058,10.7992319 L4.88486125,10.7992319 C4.39616588,10.7992319 4,10.3964601 4,9.89961596 C4,9.40277178 4.39616588,9 4.88486125,9 L9.31200058,9 C9.80069596,9 10.1968618,9.40277178 10.1968618,9.89961596 C10.1968618,10.3964601 9.80069596,10.7992319 9.31200058,10.7992319 Z M16.11325,14.399616 L4.89997094,14.399616 C4.41127557,14.399616 4.01510969,13.9968442 4.01510969,13.5 C4.01510969,13.0031558 4.41127557,12.600384 4.89997094,12.600384 L16.1151387,12.600384 C16.6038341,12.600384 17,13.0031558 17,13.5 C17,13.9968442 16.6038341,14.399616 16.1151387,14.399616 L16.11325,14.399616 Z M16.11325,18 L4.89997094,18 C4.41127557,18 4.01510969,17.5972282 4.01510969,17.100384 C4.01510969,16.6035399 4.41127557,16.2007681 4.89997094,16.2007681 L16.1151387,16.2007681 C16.6038341,16.2007681 17,16.6035399 17,17.100384 C17,17.5972282 16.6038341,18 16.1151387,18 L16.11325,18 Z" id="形状"></path>
                <path d="M17.9764706,8.18144 C18.1415985,8.35083821 18.2343529,8.57999809 18.2343529,8.81888 L18.2343529,21.30048 C18.2343529,21.79776 17.8409412,22.1990481 17.3534118,22.1990481 L2.64658824,22.1990481 C2.4122956,22.1995512 2.18745468,22.1048436 2.02178439,21.9358599 C1.8561141,21.7668762 1.76326354,21.5375385 1.76375673,21.29856 L1.76375673,2.69952 C1.76375673,2.20032 2.15905882,1.79904 2.64847059,1.79904 L11.7388235,1.79904 L17.9764706,8.18144 Z M12.4710588,0 L1.76376471,0 C0.790094417,0.0010582254 0.00103747588,0.805896305 0,1.79904 L0,22.19904 C0,23.19168 0.790588235,24 1.76376471,24 L18.2343529,24 C19.2094118,24 20,23.1936 20,22.19904 L20,7.69952 L12.4710588,0 Z" id="形状"></path>
                <path d="M16.0026484,6.48331174 L13.6543809,6.48331174 L13.6543809,4.13504425 L16.0026484,6.48331174 Z M12,0.137692671 L12,7.3096194 C12,7.76867921 12.3690135,8.13769267 12.8263077,8.13769267 L20,8.13769267 L12,0.137692671 Z" id="形状"></path>
            </g>
        </g>
    </g>
</svg>