<?xml version="1.0" encoding="UTF-8"?>
<svg width="14px" height="14px" viewBox="0 0 14 14" version="1.1" xmlns="http://www.w3.org/2000/svg" xmlns:xlink="http://www.w3.org/1999/xlink">
    <title>English</title>
    <g id="页面-1" stroke="none" stroke-width="1" fill="none" fill-rule="evenodd">
        <g id="Dashboard" transform="translate(-1213.000000, -23.000000)" fill="#ffffff" fill-rule="nonzero">
            <g id="English" transform="translate(1213.000000, 23.000000)">
                <path d="M7,0 C10.8659932,0 14,3.13400675 14,7 C14,10.8659932 10.8659932,14 7,14 C3.13400675,14 0,10.8659932 0,7 C0,3.13400675 3.13400675,0 7,0 Z M1.787625,5.59825 C1.722875,5.663 1.722875,5.663 1.787625,5.726 C1.61525,6.005125 1.245125,6.03925 0.98,5.87125 C0.674621101,7.50177833 1.04347855,9.1864479 2.00226148,10.5401887 C2.96104441,11.8939295 4.42779369,12.8010205 6.06725,13.054125 L6.062,13.04975 L5.957,12.99725 C6.153875,12.93425 6.414625,12.93425 6.608875,12.93425 C6.544125,12.551 6.544125,12.233375 6.544125,11.84925 C6.544125,11.84925 5.046125,10.766 5.046125,10.12725 C5.046125,9.4885 5.24125,9.170875 5.046125,9.170875 C4.71975,9.170875 4.328625,9.426375 4.263875,9.170875 C4.1335,8.787625 3.87275,8.469125 3.481625,8.34225 C2.58475,8.34225 2.456125,7.37625 2.440375,6.3805 L2.4395,6.10925 C2.4395,5.789 2.048375,5.789 1.787625,5.59825 L1.787625,5.59825 Z M7.370125,0.886375 L7.445375,0.9065 C8.437625,1.20925 8.4665,2.21025 7.651875,2.08775 C7.651875,2.405375 7.651875,2.78775 7.587125,3.171 C7.5215,3.80975 6.73925,3.619 6.544125,3.9375 C6.349875,4.256875 6.93525,4.575375 7.587125,4.447625 C7.78225,4.447625 7.587125,4.255125 7.718375,4.192125 C7.97825,4.129125 8.30375,4.129125 8.5645,4.192125 C8.29903754,4.76585298 7.99409732,5.32047578 7.651875,5.852 C7.520625,6.04275 7.651875,6.426 7.651875,6.680625 C7.651875,8.596 6.73925,6.234375 6.608875,6.29825 C6.4785,6.426 5.893125,6.1705 5.632375,6.1705 C5.371625,6.1705 5.501125,6.680625 5.24125,6.680625 C4.71975,6.680625 4.850125,6.552875 4.850125,6.743625 C4.850125,6.999125 4.914,7.510125 4.914,8.27575 C4.914,8.53125 5.4355,8.21275 5.761,8.21275 C6.152125,8.21275 6.412875,8.53125 6.673625,8.659 C7.128625,8.8515 7.585375,9.489375 7.910875,9.5515 C8.236375,9.617125 7.975625,10.126375 8.365875,10.0625 C8.561,9.9995 8.82175,10.12725 8.952125,10.318 C9.148125,10.5735 9.01775,10.89375 8.757,11.0845 C8.36675,11.466875 8.236375,11.913125 8.04125,12.8065 C8.148,12.7715 8.274,12.86075 8.378125,12.968375 C10.3696151,12.5074897 12.0006432,11.0848105 12.72775,9.174375 C12.2325,9.70025 11.66025,9.7405 11.83,9.295125 C11.634,8.91275 11.37325,8.5925 11.04775,8.274 C10.460625,7.763875 9.939125,6.80575 11.764375,5.46525 C11.48175,4.746 12.18175,4.074 12.62625,4.578 C11.7120572,2.45375694 9.67936523,1.02552515 7.371,0.8855 L7.370125,0.886375 Z" id="形状"></path>
            </g>
        </g>
    </g>
</svg>