<?xml version="1.0" encoding="UTF-8"?>
<svg width="14px" height="14px" viewBox="0 0 14 14" version="1.1" xmlns="http://www.w3.org/2000/svg" xmlns:xlink="http://www.w3.org/1999/xlink">
    <title>Administration</title>
    <g id="页面-1" stroke="none" stroke-width="1" fill="none" fill-rule="evenodd">
        <g id="Dashboard" transform="translate(-20.000000, -427.000000)" fill="#FFFFFF" fill-rule="nonzero">
            <path d="M31.2008126,440.91656 C30.4192508,440.915836 29.6739997,440.588648 29.1471925,440.014955 C28.0224175,440.493736 26.7682562,440.582602 25.5864952,440.267256 C25.7497718,439.998623 25.8725805,439.707679 25.9510128,439.403683 C26.8398942,439.611966 27.7711707,439.551069 28.6249196,439.228834 C28.138394,438.099345 28.4548674,436.786471 29.40358,435.998601 C30.3522926,435.210731 31.7086969,435.134343 32.7409171,435.810654 C33.7731373,436.486964 34.2368607,437.7559 33.8818759,438.932781 C33.5268912,440.109661 32.4372183,440.915935 31.2008126,440.91656 Z M31.2008126,436.278677 C30.1697371,436.278677 29.3338852,437.109258 29.3338852,438.13383 C29.3338852,439.158403 30.1697371,439.988983 31.2008126,439.988983 C32.2318882,439.988983 33.06774,439.158403 33.06774,438.13383 C33.06774,437.109258 32.2318882,436.278677 31.2008126,436.278677 Z M31.6376737,434.426307 C31.4991924,433.033163 30.7339964,431.777018 29.5560496,431.009115 C29.6292258,430.822422 29.6830235,430.62879 29.7166054,430.431235 C29.3576236,431.84642 27.951022,432.738498 26.5081204,432.466081 C25.0652188,432.193663 24.0858814,430.851124 24.2742332,429.403724 C24.4625849,427.956324 25.7533751,426.905485 27.2185502,427.00674 C28.6837253,427.107995 29.8157048,428.326267 29.8006171,429.785641 C29.8006171,429.878399 29.7819478,429.966055 29.7730799,430.05603 C31.4171431,430.990516 32.4732509,432.688623 32.5790718,434.567762 C32.2837398,434.476591 31.9767671,434.428016 31.6675445,434.423524 C31.6572764,434.423524 31.6479418,434.426307 31.6376737,434.426307 Z M27.000226,427.930488 C25.9691505,427.930488 25.1332986,428.761069 25.1332986,429.785641 C25.1332986,430.810214 25.9691505,431.640795 27.000226,431.640795 C28.0313015,431.640795 28.8671534,430.810214 28.8671534,429.785641 C28.8671534,428.761069 28.0313015,427.930488 27.000226,427.930488 Z M22.3623116,435.394697 C22.5067025,435.368728 22.6529346,435.35415 22.7996393,435.351101 C24.3024682,435.328397 25.5633285,436.472221 25.6770912,437.96146 C25.7908539,439.450699 24.7181923,440.770539 23.2291342,440.973511 C21.740076,441.176483 20.3493729,440.192422 20.0553637,438.727752 C19.7613545,437.263083 20.6656752,435.824125 22.1191443,435.443858 C21.891668,435.485977 21.6696692,435.553339 21.4573185,435.644679 C21.1792131,433.753059 21.9126142,431.85406 23.3928555,430.632983 C23.4770209,430.950216 23.6093832,431.252839 23.785377,431.530413 C22.8576308,432.403545 22.3323451,433.617568 22.3329075,434.887312 C22.3334313,435.056846 22.3432473,435.226225 22.3623116,435.394697 L22.3623116,435.394697 Z M20.932712,438.13383 C20.932712,439.158403 21.7685638,439.988983 22.7996393,439.988983 C23.8307149,439.988983 24.6665667,439.158403 24.6665667,438.13383 C24.6665667,437.109258 23.8307149,436.278677 22.7996393,436.278677 C21.7685638,436.278677 20.932712,437.109258 20.932712,438.13383 Z" id="Administration"></path>
        </g>
    </g>
</svg>