<?xml version="1.0" encoding="UTF-8"?>
<svg width="14px" height="14px" viewBox="0 0 14 14" version="1.1" xmlns="http://www.w3.org/2000/svg" xmlns:xlink="http://www.w3.org/1999/xlink">
    <title>Registration</title>
    <defs>
        <polygon id="path-1" points="0 0 14 0 14 14 0 14"></polygon>
    </defs>
    <g id="页面-1" stroke="none" stroke-width="1" fill="none" fill-rule="evenodd">
        <g id="Dashboard" transform="translate(-20.000000, -280.000000)">
            <g id="编组" transform="translate(20.000000, 280.000000)">
                <mask id="mask-2" fill="white">
                    <use xlink:href="#path-1"></use>
                </mask>
                <g id="Clip-2"></g>
                <path d="M0.855912801,2.21121964 C0.855912801,1.79763571 1.19176087,1.461954 1.60224184,1.461954 L4.56523477,1.461954 L4.56523477,1.47164999 L4.60421714,1.47164999 C5.01636403,1.47164999 5.35054618,1.80833473 5.35054618,2.22058128 L5.35054618,5.27347933 L5.35221209,5.27347933 C5.34288298,5.45536264 5.26791689,5.62454087 5.13964159,5.75326344 C5.00570218,5.89602847 4.81512173,5.97426504 4.60421714,5.97426504 L1.60390776,5.97426504 C1.19176087,5.97426504 0.857245532,5.63724596 0.857245532,5.2249994 L0.857245532,2.21121964 L0.855912801,2.21121964 Z M4.60554987,0.614391135 L1.60390776,0.614391135 C0.719974297,0.614391135 -3.33182608e-05,1.33657488 -3.33182608e-05,2.22392472 L-3.33182608e-05,5.23603277 C-3.33182608e-05,6.12304826 0.719974297,6.84556636 1.60390776,6.84556636 L4.60554987,6.84556636 C5.04001999,6.84556636 5.44750232,6.6747164 5.75203122,6.36611659 C6.05189557,6.06186325 6.21448868,5.66065006 6.20949094,5.23603277 L6.20949094,2.222253 C6.20815821,1.3352375 5.48981651,0.614391135 4.60554987,0.614391135 L4.60554987,0.614391135 Z M12.5209691,12.4281136 C12.5113068,12.6099969 12.4366739,12.7788408 12.3083986,12.9075633 C12.174126,13.0503284 11.9835455,13.1285649 11.7729741,13.1285649 L8.77099883,13.1285649 C8.35885195,13.1285649 8.02466979,12.7918802 8.02466979,12.3792993 L8.02466979,9.37688725 C8.02466979,8.96263463 8.36018468,8.62728727 8.77099883,8.62728727 L11.7729741,8.62728727 C12.185121,8.62728727 12.5193032,8.96430635 12.5193032,9.37688725 L12.5209691,12.4281136 Z M11.77464,7.76869104 L8.77266475,7.76869104 C7.88839811,7.76869104 7.16872367,8.49120913 7.16872367,9.37822463 L7.16872367,12.3903327 C7.16872367,13.2776825 7.88839811,14.0002006 8.77266475,14.0002006 L11.77464,14.0002006 C12.2084438,14.0002006 12.6162593,13.8290163 12.9207882,13.5204165 C13.2203194,13.2164975 13.3832457,12.8152843 13.3782479,12.3903327 L13.3782479,9.37688725 C13.376582,8.94591742 13.2096575,8.54136078 12.9081273,8.23877917 C12.6052643,7.93486017 12.2024465,7.76869104 11.77464,7.76869104 L11.77464,7.76869104 Z M13.1440206,3.73315502 C13.1440206,3.94312325 13.0673886,4.12500657 12.9237869,4.26108471 L10.8044123,6.38784897 C10.6764702,6.52426146 10.4905543,6.59948893 10.2796497,6.59948893 C10.0827388,6.59948893 9.89715605,6.52125236 9.75322116,6.37681561 L7.63417978,4.25038569 C7.49524263,4.11062976 7.41228016,3.91336661 7.41228016,3.72212165 C7.41228016,3.51382514 7.48857898,3.33194182 7.63417978,3.19385762 L9.75022252,1.07010245 C9.89249149,0.937033411 10.0890692,0.855453395 10.2763179,0.855453395 C10.4732288,0.855453395 10.6591447,0.934024312 10.8030796,1.07812672 L12.9224541,3.20321926 C13.0613913,3.34431256 13.1440206,3.54157572 13.1440206,3.73315502 L13.1440206,3.73315502 Z M13.529846,2.59504693 L11.4121374,0.469954386 C11.1152717,0.172053591 10.7014589,-0.000133737731 10.2763179,-0.000133737731 C9.84851139,-0.000133737731 9.4440277,0.166035393 9.14116471,0.469954386 L7.0264547,2.59504693 C6.40040458,3.22361426 6.40040458,4.24403315 7.0264547,4.87226614 L9.14416335,6.99735868 C9.44102906,7.29525948 9.85484186,7.46778115 10.2796497,7.46778115 C10.7187844,7.46778115 11.1229349,7.2999403 11.415136,6.99735868 L13.5328447,4.87226614 C14.1562293,4.24403315 14.1562293,3.22194254 13.529846,2.59504693 L13.529846,2.59504693 Z M0.855912801,9.37688725 C0.855912801,8.96263463 1.19176087,8.62728727 1.60224184,8.62728727 L4.60421714,8.62728727 C5.01636403,8.62728727 5.35054618,8.96430635 5.35054618,9.37688725 L5.35054618,12.4281136 L5.35221209,12.4281136 C5.34454889,12.6099969 5.26958281,12.7788408 5.1413075,12.9075633 C5.00703491,13.0503284 4.81645446,13.1285649 4.60554987,13.1285649 L1.60390776,13.1285649 C1.19176087,13.1285649 0.857245532,12.7918802 0.857245532,12.3792993 L0.857245532,9.37688725 L0.855912801,9.37688725 Z M4.60554987,7.76869104 L1.60390776,7.76869104 C0.719974297,7.76869104 -3.33182608e-05,8.49120913 -3.33182608e-05,9.37822463 L-3.33182608e-05,12.3903327 C-3.33182608e-05,13.2776825 0.719974297,14.0002006 1.60390776,14.0002006 L4.60554987,14.0002006 C5.04001999,14.0002006 5.44750232,13.8290163 5.75203122,13.5204165 C6.05189557,13.2164975 6.21448868,12.8152843 6.20949094,12.3903327 L6.20949094,9.37688725 C6.20815821,8.48953741 5.48981651,7.76869104 4.60554987,7.76869104 L4.60554987,7.76869104 Z" id="Fill-1" fill="#FFFFFF" mask="url(#mask-2)"></path>
            </g>
        </g>
    </g>
</svg>