<?xml version="1.0" encoding="UTF-8"?>
<svg width="14px" height="14px" viewBox="0 0 14 14" version="1.1" xmlns="http://www.w3.org/2000/svg" xmlns:xlink="http://www.w3.org/1999/xlink">
    <title>形状备份 2</title>
    <g id="页面-1" stroke="none" stroke-width="1" fill="none" fill-rule="evenodd">
        <g id="Dashboard" transform="translate(-20.000000, -93.000000)" fill="#FFFFFF" fill-rule="nonzero">
            <path d="M33.9766661,99.5436551 L27.4665056,99.5436551 L27.4665056,93 L28.3998619,93 C31.3836821,93.2405796 33.7493545,95.6194464 33.9775994,98.6088472 L34,99.0762512 L34,99.5436551 L33.9766661,99.5436551 Z M28.3998619,93.9581781 L28.3998619,98.6088472 L33.0442431,98.6088472 C32.8182362,96.1398283 30.8650924,94.1840402 28.3998619,93.9581781 Z M33.0666437,100.945867 L33.0433097,100.945867 C32.784067,104.425217 29.84376,107.088262 26.3613246,106.99776 C22.8788892,106.907259 20.0804312,104.095075 20.0016979,100.606941 C19.9229647,97.1188068 22.5916769,94.1828352 26.0664711,93.9348079 L26.9998274,93.9348079 L26.9998274,100.011059 L33.0666437,100.011059 L33.0666437,100.945867 Z M26.0664711,100.945867 L26.0664711,94.8929859 C23.1036207,95.1388858 20.8490103,97.6607302 20.9309325,100.637229 C21.0128548,103.613727 23.4027536,106.007342 26.3746302,106.089392 C29.3465068,106.171442 31.8644354,103.913325 32.1099534,100.945867 L26.0664711,100.945867 Z" id="形状备份-2"></path>
        </g>
    </g>
</svg>