<?xml version="1.0" encoding="UTF-8"?>
<svg width="36px" height="36px" viewBox="0 0 36 36" version="1.1" xmlns="http://www.w3.org/2000/svg" xmlns:xlink="http://www.w3.org/1999/xlink">
    <title>Total Registration</title>
    <g id="页面-1" stroke="none" stroke-width="1" fill="none" fill-rule="evenodd">
        <g id="Dashboard" transform="translate(-252.000000, -92.000000)" fill="#D97F29" fill-rule="nonzero">
            <path d="M259.936391,124.995361 C257.543278,124.995361 253.20612,124.698072 252.518696,124.185763 C252.213598,123.952045 252.031492,123.594924 252.022911,123.215367 L252.022911,123.134033 C251.913267,115.768185 251.775019,104.651634 262.479192,100.416669 C264.130535,99.7688035 265.339486,99.8763136 266.054559,100.740134 C266.57704,101.360889 266.798236,102.33222 266.798236,103.950481 C266.798236,104.621174 266.243737,105.164879 265.559728,105.164879 C264.87572,105.164879 264.321221,104.621174 264.321221,103.950481 C264.353618,103.442987 264.307327,102.933611 264.183927,102.43973 C263.918857,102.492935 263.660527,102.574443 263.413555,102.682796 C254.608617,106.163321 254.415071,115.310098 254.498019,122.324435 C256.038764,122.567501 260.595212,122.782521 261.750771,122.513279 C262.978582,122.300077 264.002187,121.470658 264.447074,120.328485 C265.465339,118.088534 265.547334,114.60801 265.519684,111.802462 C265.521591,111.138704 266.053606,110.591804 266.730542,110.560954 L266.758192,110.560954 C267.433842,110.555231 267.987281,111.085782 267.996699,111.74824 C268.023395,114.770677 267.91375,118.600844 266.702893,121.272705 C265.930291,123.103779 264.280809,124.439153 262.3009,124.836433 C261.519087,124.963575 260.727739,125.016863 259.936391,124.995361 Z M277.699476,124.833847 C275.719293,124.43642 274.069714,123.1008 273.297339,121.269555 C272.086442,118.598907 271.97584,114.768205 272.00349,111.747017 C272.039897,111.092231 272.599635,110.583864 273.268342,110.598248 C273.93705,110.612631 274.473507,111.144578 274.480586,111.800299 C274.452936,114.579381 274.534934,118.059543 275.553232,120.325434 C276.005233,121.462648 277.025377,122.289503 278.249624,122.510935 C279.37757,122.781084 283.960865,122.538043 285.502614,122.32211 C285.585565,115.307569 285.392012,106.162679 276.587739,102.682517 C276.335577,102.587098 276.078036,102.505951 275.816387,102.439476 C275.707982,102.935637 275.661874,103.442934 275.679089,103.95007 C275.679089,104.620693 275.124572,105.164341 274.440541,105.164341 C273.75651,105.164341 273.201993,104.620693 273.201993,103.95007 C273.201993,102.331042 273.421289,101.360747 273.945694,100.740057 C274.660791,99.8763265 275.843084,99.7688275 277.521178,100.416626 C288.22475,104.65115 288.087451,115.765608 287.976849,123.131624 L287.976849,123.21295 C287.969222,123.592468 287.78711,123.948616 287.482002,124.183245 C286.797416,124.698305 282.432464,124.995563 280.03832,124.995563 C279.255189,125.016659 278.471834,124.962495 277.699476,124.833847 Z M270.000769,106 C269.731002,105.997092 269.473493,105.874218 269.285641,105.658769 C269.09779,105.44332 268.995212,105.153203 269.000772,104.853089 L269.000772,93.1563091 C268.986395,92.7486887 269.17364,92.3649953 269.488721,92.1564266 C269.803803,91.9478578 270.196197,91.9478578 270.511279,92.1564266 C270.82636,92.3649953 271.013605,92.7486887 270.999228,93.1563091 L270.999228,104.853089 C271.002341,105.474336 270.558162,105.984164 270,106 L270.000769,106 Z M259.352222,108.6233 C258.913353,108.276908 258.880205,107.696731 259.277527,107.315944 C259.674849,106.935156 260.357601,106.892762 260.816025,107.220413 C261.929309,108.056534 264.05998,108.136966 264.791882,108.110779 C265.195862,108.082217 265.586305,108.241861 265.811692,108.527758 C266.037079,108.813656 266.061927,109.180797 265.876594,109.486707 C265.69126,109.792617 265.324922,109.989135 264.919744,110 C264.785294,109.968543 264.64503,109.959022 264.506396,109.971942 C263.487907,109.972878 261.006716,109.837265 259.352222,108.6233 Z M261.010318,118.998067 C260.624085,118.984235 260.29087,118.718238 260.185907,118.339959 C259.724539,116.626315 260.25818,113.146892 260.331293,112.752027 C260.354386,112.519097 260.47247,112.306692 260.656815,112.166486 C260.84116,112.026279 261.074871,111.971123 261.301089,112.014434 C261.529606,112.060618 261.730279,112.198284 261.85798,112.396472 C261.985681,112.59466 262.029692,112.836736 261.980115,113.068261 C261.761617,114.386186 261.543118,116.837423 261.786828,117.839114 C261.9283,118.315122 261.669478,118.818788 261.204446,118.972426 C261.142407,118.995509 261.076096,119.004267 261.010318,118.998067 Z M257.48527,117.864389 C257.257469,117.737236 257.092901,117.526833 257.02906,117.281117 C256.965219,117.035401 257.007543,116.775302 257.146388,116.560078 C261.553812,109.46594 269.090506,104.329683 269.487174,104.140393 C269.795811,103.958917 270.182614,103.95298 270.497117,104.124892 C270.811621,104.296805 271.004169,104.619424 271,104.967251 C270.995552,105.315077 270.795068,105.633196 270.476396,105.797858 C270.390206,105.852479 262.997488,110.881377 258.842756,117.566799 C258.650788,117.836137 258.333454,117.998117 257.994572,118 C257.816168,117.993361 257.641812,117.946936 257.48527,117.864389 Z M275.074174,110 C274.671625,109.989797 274.307372,109.795975 274.122945,109.493844 C273.938518,109.191713 273.962993,108.828906 274.186862,108.546391 C274.41073,108.263876 274.798696,108.106193 275.200017,108.134611 C275.926624,108.161391 278.011242,108.08105 279.148207,107.254553 C279.438933,107.021426 279.857285,106.940842 280.239084,107.044424 C280.620883,107.148007 280.905211,107.41923 280.980485,107.751653 C281.055758,108.084076 280.909968,108.424659 280.600327,108.639743 C279.020176,109.867022 276.5252,110 275.515172,110 L275.074174,110 Z M278.124575,118.973392 C277.668922,118.826725 277.409058,118.322179 277.540678,117.839714 C277.808614,116.837424 277.565113,114.386299 277.346888,113.067965 C277.259004,112.578761 277.563572,112.10693 278.027681,112.013297 C278.249988,111.972153 278.478643,112.027393 278.661731,112.166476 C278.84482,112.305559 278.966808,112.516685 279,112.75192 C279.073303,113.147864 279.607489,116.627911 279.145764,118.34219 C279.067025,118.728041 278.741795,119.00248 278.367234,118.999138 C278.28557,119.002964 278.203912,118.994001 278.124575,118.973392 Z M281.157469,118.50645 C277.001681,111.356982 269.63625,105.98179 269.523614,105.922379 C269.204936,105.746313 269.004448,105.406161 269,105.034243 C268.995831,104.662326 269.188383,104.317362 269.502892,104.133542 C269.817401,103.949723 270.204212,103.956071 270.512854,104.150117 C270.90855,104.381719 278.415021,109.846531 282.853868,117.428995 C282.992634,117.65925 283.034809,117.937457 282.970778,118.200206 C282.906748,118.462955 282.74197,118.687855 282.514001,118.823645 C282.36533,118.933705 282.187834,118.995118 282.004689,119 C281.656077,119.005796 281.331751,118.816911 281.157469,118.50645 Z" id="Total-Registration"></path>
        </g>
    </g>
</svg>