<?xml version="1.0" encoding="UTF-8"?>
<svg width="14px" height="14px" viewBox="0 0 14 14" version="1.1" xmlns="http://www.w3.org/2000/svg" xmlns:xlink="http://www.w3.org/1999/xlink">
    <title>Admin</title>
    <g id="页面-1" stroke="none" stroke-width="1" fill="none" fill-rule="evenodd">
        <g id="Dashboard" transform="translate(-1343.000000, -23.000000)" fill="#333333" fill-rule="nonzero">
            <g id="Admin" transform="translate(1343.000000, 23.000000)">
                <path d="M6.50045067,0 C7.70052607,0 8.77426273,0.541962783 9.48408038,1.39067903 L9.59864756,1.53493172 C10.0817373,2.17198518 10.3680926,2.96222685 10.3680926,3.81704993 C10.3680926,3.96342464 10.3597059,4.10789782 10.3433814,4.25002612 C10.3414165,4.26658679 10.3392955,4.28397023 10.3370559,4.30131767 C10.3309447,4.34928919 10.3239793,4.39622217 10.316154,4.44287196 C10.3113232,4.47087256 10.3062096,4.49928885 10.3007778,4.52759556 C10.292142,4.57353364 10.2825612,4.61895019 10.2721684,4.66406522 C10.2680058,4.68111308 10.2639561,4.69810869 10.2597912,4.71506044 C10.2473949,4.76665248 10.2337074,4.81774616 10.2189831,4.86841114 C10.213207,4.88708877 10.20743,4.90635734 10.2015033,4.92556222 C10.0794064,5.32298777 9.8932684,5.69258599 9.65512355,6.02327612 C9.64510711,6.03546807 9.63589308,6.04808942 9.62660336,6.06065298 C9.42133013,6.34020238 9.17767128,6.59080235 8.90392476,6.80560842 C8.90297554,6.80505659 8.9022956,6.80559028 8.90161548,6.80612375 C11.2955696,7.71325118 13,10.0041926 13,12.6811079 C13,13.4085885 12.4006101,14 11.6633155,14 L1.33668446,14 C0.599389863,14 0,13.4085885 0,12.6811079 C0,10.0041926 1.70443042,7.71325118 4.09838452,6.80612375 L4.0963447,6.80452268 C3.82232872,6.59080235 3.57866987,6.34020238 3.37242407,6.06104177 C3.36410692,6.04808942 3.35489289,6.03546807 3.34575523,6.02278959 C3.1067316,5.69258599 2.92059364,5.32298777 2.79831171,4.92618152 C2.79256997,4.90635734 2.78679303,4.88708877 2.78116722,4.86775783 C2.76629263,4.81774616 2.75260509,4.76665248 2.73997845,4.71515399 C2.7360439,4.69810869 2.73199415,4.68111308 2.72806042,4.66407448 C2.7174388,4.61895019 2.707858,4.57353364 2.69910517,4.52783137 C2.69379039,4.49928885 2.68867685,4.47087256 2.68388536,4.44235046 C2.6760207,4.39622217 2.66905526,4.34928919 2.66296632,4.30208945 C2.66070448,4.28397023 2.65858351,4.26658679 2.65658203,4.24916814 C2.64029411,4.10789782 2.63190737,3.96342464 2.63190737,3.81704993 C2.63190737,2.96222685 2.91826267,2.17198518 3.40135244,1.53493172 L3.51591962,1.39067903 C4.17841609,0.598543866 5.15792646,0.0736250531 6.26128916,0.00715647879 L6.49954933,0 L6.50045067,0 Z M6.62303266,7.63409986 L6.37696734,7.63409986 C3.5566803,7.63409986 1.2618734,9.89836107 1.2618734,12.6811079 C1.2618734,12.7117901 1.2806325,12.7379701 1.30750364,12.7491424 L1.33668446,12.7549231 L11.6633155,12.7549231 C11.7047771,12.7549231 11.7381266,12.7220175 11.7381266,12.6811079 C11.7381266,9.89836107 9.4433197,7.63409986 6.62303266,7.63409986 Z M6.50045067,1.24507686 C5.06281634,1.24507686 3.89378077,2.39855165 3.89378077,3.81704993 C3.89378077,5.23554821 5.06281634,6.389023 6.50045067,6.389023 C7.93718366,6.389023 9.10712057,5.23554821 9.10712057,3.81704993 C9.10712057,2.39855165 7.938085,1.24507686 6.50045067,1.24507686 Z" id="形状结合"></path>
            </g>
        </g>
    </g>
</svg>